<svg xmlns="http://www.w3.org/2000/svg" xmlns:xlink="http://www.w3.org/1999/xlink" width="130" height="130" viewBox="0 0 130 130">
    <defs>
        <circle id="a" cx="64.972" cy="64.972" r="64.972"/>
    </defs>
    <g fill="none" fill-rule="evenodd">
        <mask id="b" fill="#fff">
            <use xlink:href="#a"/>
        </mask>
        <use fill="#23B2F5" fill-rule="nonzero" xlink:href="#a"/>
        <g mask="url(#b)">
            <path fill="#F88D1F" d="M32.28 29.946l24.651-11.328 18.606 1.067-1.838 5.41-12.565-1.73-28.276 12.442zM96.2 99.718l-24.652 11.328-18.605-1.067 4.336-7.156 5.874 1.687 15.283-2.197 17.186-8.456zM23.615 65.575l28.838-8.27 3.658 15.854-29.74 2.028zM103.238 53.912l-25.98 15-7.385-14.498 28.365-9.162z"/>
            <path fill="#F88D1F" d="M70.901 105.496l-9.767-28.365 15.64-4.483 3.582 29.593z"/>
            <g fill-rule="nonzero">
                <path fill="#004F8C" d="M76.039 20.47c-.26.07-.532.074-.794.013A44.344 44.344 0 0 0 35.024 31.26c-.668.62-1.71.58-2.33-.09a1.66 1.66 0 0 1 .081-2.339 47.629 47.629 0 0 1 43.203-11.576 1.66 1.66 0 0 1 .06 3.215zM77.802 110.47a47.096 47.096 0 0 1-19.617 1.062 1.66 1.66 0 0 1-1.037-2.678c.37-.46.958-.687 1.541-.594a44.355 44.355 0 0 0 34.561-9.261 1.643 1.643 0 0 1 1.631-.255 1.66 1.66 0 0 1 .442 2.837 47.096 47.096 0 0 1-17.52 8.888z"/>
                <path fill="#004F8C" d="M75.53 27.175a1.638 1.638 0 0 1-.837.002 37.655 37.655 0 0 0-35.844 9.605c-.42.414-1.029.572-1.597.413a1.658 1.658 0 0 1-.718-2.78 40.944 40.944 0 0 1 38.98-10.444 1.66 1.66 0 0 1 1.24 1.598 1.65 1.65 0 0 1-1.223 1.606z"/>
                <path fill="#004F8C" d="M58.835 113.167a1.64 1.64 0 0 1-.669.038c-18.852-2.823-34.44-16.254-40.08-34.536-5.64-18.281-.33-38.166 13.65-51.13.355-.387.872-.581 1.392-.524.521.058.984.36 1.248.815l5.62 8.202a1.66 1.66 0 0 1-.19 2.116c-9.613 9.545-13.121 23.679-9.1 36.661 4.02 12.982 14.903 22.654 28.225 25.086.802.148 1.377.861 1.354 1.679l-.229 10.027a1.649 1.649 0 0 1-1.221 1.566zM95.577 103.322a1.649 1.649 0 0 1-1.84-.745l-5.212-8.57a1.658 1.658 0 0 1 .333-2.13c10.322-8.768 14.91-22.585 11.9-35.839-3.008-13.253-13.113-23.74-26.21-27.199a1.66 1.66 0 0 1-1.223-1.737l.772-9.988c.025-.519.29-.996.718-1.288a1.646 1.646 0 0 1 1.458-.2c18.58 4.251 33.103 18.821 37.35 37.467 4.246 18.647-2.539 38.062-17.448 49.927a1.64 1.64 0 0 1-.598.302z"/>
                <path fill="#004F8C" d="M76.087 104.068a40.574 40.574 0 0 1-17.785.762 1.66 1.66 0 0 1-.977-2.698c.38-.452.97-.667 1.55-.563a37.682 37.682 0 0 0 30.868-8.27c.45-.381 1.07-.49 1.624-.289a1.66 1.66 0 0 1 .503 2.825 40.574 40.574 0 0 1-15.783 8.233z"/>
                <path fill="#FFDC00" d="M92.063 93.46l3.507 5.763c12.96-11.209 18.663-28.708 14.82-45.467-3.844-16.76-16.603-30.03-33.154-34.482l-.512 6.745c13.663 4.129 24.073 15.312 27.249 29.274 3.175 13.962-1.375 28.543-11.91 38.167zM32.695 31.208c-12.108 12.131-16.522 30.004-11.47 46.44 5.05 16.436 18.74 28.738 35.567 31.966l.156-6.745C43.012 99.802 31.78 89.449 27.55 75.771c-4.23-13.68-.807-28.57 8.961-38.977l-3.816-5.586z"/>
                <path fill="#FFDC00" stroke="#004F8C" stroke-width="3.561" d="M69.194 78.346c7.842-2.112 12.49-10.205 10.387-18.092-2.114-7.89-10.192-12.577-18.04-10.474-7.848 2.103-12.5 10.202-10.387 18.091 2.114 7.89 10.192 12.577 18.04 10.475zm0 0h-.001z"/>
                <path fill="#F88D1F" d="M67.94 73.664c-5.28 1.415-10.711-1.737-12.132-7.04-1.421-5.302 1.707-10.748 6.987-12.163 5.28-1.414 10.712 1.738 12.133 7.04 1.414 5.302-1.712 10.743-6.988 12.163zm-4.287-16.002c-3.52.943-5.606 4.573-4.659 8.109.948 3.535 4.569 5.636 8.089 4.693 3.52-.943 5.605-4.574 4.658-8.109-.95-3.532-4.57-5.632-8.088-4.693z"/>
                <path fill="#004F8C" d="M80.986 102.396a1.655 1.655 0 0 1-2.06-1.343l-4.237-26.65a1.656 1.656 0 0 1 .588-1.548 1.643 1.643 0 0 1 1.63-.257c.552.213.948.705 1.04 1.29l4.237 26.65a1.651 1.651 0 0 1-1.198 1.858zM71.009 105.069a1.651 1.651 0 0 1-1.967-1.009l-9.655-25.198a1.659 1.659 0 0 1 .254-1.638c.37-.46.958-.686 1.541-.592a1.656 1.656 0 0 1 1.283 1.047l9.656 25.198a1.655 1.655 0 0 1-1.112 2.192zM73.943 96.067a1.645 1.645 0 0 1-1.252-.166 1.66 1.66 0 0 1-.77-1.007l-2.572-9.601a1.653 1.653 0 0 1 1.164-2.028c.88-.235 1.785.29 2.022 1.174l2.573 9.601a1.66 1.66 0 0 1-.164 1.257c-.218.38-.578.657-1 .77zM52.19 59.498l-.018.005-24.344 6.215c-.881.23-1.783-.3-2.015-1.186a1.653 1.653 0 0 1 1.176-2.02l.019-.005 24.344-6.215c.881-.23 1.783.3 2.015 1.186a1.653 1.653 0 0 1-1.176 2.02zM54.52 75.322c-.118.032-.239.05-.36.056l-25.121 1.019a1.657 1.657 0 0 1-.14-3.31l25.12-1.019a1.656 1.656 0 0 1 1.7 1.406 1.652 1.652 0 0 1-1.2 1.848zM44.53 68.703c-.063.016-.125.03-.189.038l-9.793 1.435a1.65 1.65 0 0 1-1.537-.61 1.662 1.662 0 0 1-.243-1.64c.217-.55.711-.942 1.295-1.027l9.794-1.435a1.654 1.654 0 0 1 1.857 1.304 1.652 1.652 0 0 1-1.185 1.935zM74.497 53.521a1.653 1.653 0 0 1-2.029-1.161 1.653 1.653 0 0 1 1.153-2.034l24.19-6.79a1.653 1.653 0 0 1 2.033 1.15 1.653 1.653 0 0 1-1.139 2.04l-24.19 6.79-.018.005zM80.392 68.39a1.652 1.652 0 0 1-1.963-1.001 1.656 1.656 0 0 1 .77-2.068l22.264-11.678a1.657 1.657 0 0 1 1.534 2.936L80.732 68.259c-.108.056-.222.1-.34.132zM85.734 57.662a1.652 1.652 0 0 1-1.993-1.083 1.654 1.654 0 0 1 .957-2.058l9.198-3.654a1.646 1.646 0 0 1 1.635.241c.463.368.696.956.61 1.542a1.65 1.65 0 0 1-1.026 1.297l-9.199 3.654c-.059.024-.12.044-.182.06z"/>
            </g>
        </g>
    </g>
</svg>
